<svg xmlns="http://www.w3.org/2000/svg" xmlns:xlink="http://www.w3.org/1999/xlink" width="325" height="120" viewBox="0 0 325 120"><defs><path id="a" d="M0 0h821v120H0z"/></defs><g fill="none" fill-rule="evenodd" transform="translate(-253)"><mask id="b" fill="#fff"><use xlink:href="#a"/></mask><use fill="#253238" fill-rule="nonzero" xlink:href="#a"/><path fill="#FFF" fill-rule="nonzero" d="M14.301 40.712H28.94l.73-28.12a.878.878 0 011.757.045l-.037 1.4 1.953.776 4.298-10.435a.881.881 0 01.088-.163L29.488.053l-3.046-1.865a3.396 3.396 0 00-1.775-.5h-3.56a.878.878 0 110-1.756h3.56c.951 0 1.883.262 2.693.758l2.982 1.83 10.075 5.085a2.815 2.815 0 011.348 3.557L38.37 15.67a2.823 2.823 0 01-3.666 1.575l-3.361-1.336-.702 26.99c-.05 1.958-1.642 3.522-3.592 3.522H-.296a3.507 3.507 0 01-3.496-3.426l-.71-27.34-4.006 1.589a2.83 2.83 0 01-3.672-1.576l-3.398-8.501a2.818 2.818 0 011.351-3.563l10.015-5.048a.86.86 0 00.073-.042L-.601-3.65a2.827 2.827 0 011.48-.417h5.957a.878.878 0 110 1.756H.879a1.07 1.07 0 00-.562.158L-3.217.008a2.54 2.54 0 01-.208.116l-7.676 3.87c.131.093.24.224.305.384l4.207 10.214 2.037-.809-.03-1.146a.878.878 0 011.757-.045l.73 28.12h14.64V33.03a.878.878 0 011.756 0v7.683zm-1.756 3.951v-2.195H-2.05l.013.48a1.75 1.75 0 001.74 1.715h12.842zm1.756 0h12.747c.994 0 1.81-.8 1.836-1.81l.01-.385H14.301v2.195zm-26.787-39.97l-.95.478c-.494.25-.715.832-.51 1.343l3.397 8.501c.219.548.842.815 1.393.596l.934-.371-4.198-10.193a.875.875 0 01-.066-.354zm51.77.306a.892.892 0 01-.019.048l-4.29 10.415.377.15a1.067 1.067 0 001.385-.594l3.397-8.507a1.06 1.06 0 00-.508-1.339L39.283 5zM-22.807-7.15c0-5.33 4.322-9.65 9.653-9.65h52.712c5.332 0 9.653 4.32 9.653 9.65v52.7c0 5.33-4.321 9.65-9.653 9.65h-52.712c-5.331 0-9.653-4.32-9.653-9.65v-52.7zm1.757 0v52.7a7.895 7.895 0 007.896 7.894h52.712a7.895 7.895 0 007.896-7.894v-52.7a7.895 7.895 0 00-7.896-7.894h-52.712A7.895 7.895 0 00-21.05-7.15zm36.186 9.86a.878.878 0 01-1.473-.467L12.56-3.52a.878.878 0 01.545-.983L20.314-7.3c.57-.222 1.224.194 1.233.806v2.62a.878.878 0 01-.268.643L15.137 2.71zm4.648-6.94l-.014-.977-5.348 2.075.66 3.45 4.702-4.548zm-7.362 1.098L7.074-5.207l-.013.977L11.762.317l.66-3.45zM9.207-6.263H5.3v-.878c0-.485.393-.879.878-.879h14.491c.486 0 .879.394.879.879v.878H9.207l4.534 1.759a.878.878 0 01.544.983l-1.103 5.764a.878.878 0 01-1.473.466L5.566-3.232a.878.878 0 01-.267-.643v-2.62c.008-.612.662-1.028 1.233-.806l2.675 1.038zM.03 11.17V8.58c0-1.182 1-2.113 2.204-2.113h3.252c1.218 0 2.23.942 2.23 2.136v2.567c0 2.024-1.735 3.639-3.843 3.639-2.109 0-3.843-1.615-3.843-3.639zm1.757 0c0 1.025.92 1.883 2.086 1.883 1.165 0 2.086-.858 2.086-1.883V8.604c0-.195-.198-.38-.473-.38H2.233c-.26 0-.447.174-.447.357v2.59zm12.376 22.99a.878.878 0 01-1.479-.947l3.497-5.453c.256-.4.361-.871.3-1.336l-3.928-29.5a.878.878 0 011.741-.231l3.927 29.499a3.742 3.742 0 01-.561 2.516l-3.497 5.453zm0-.948a.878.878 0 11-1.478.95L9.257 28.84a4.146 4.146 0 01-.628-2.798l3.923-29.349a.878.878 0 011.741.233L10.37 26.274a2.39 2.39 0 00.364 1.615l3.427 5.324zM60.614-7.81v54.02a7.192 7.192 0 007.193 7.191h54.03a7.192 7.192 0 007.193-7.191V-7.81a7.192 7.192 0 00-7.192-7.19h-54.03a7.192 7.192 0 00-7.193 7.191zm-1.8 0a8.992 8.992 0 018.993-8.991h54.03a8.992 8.992 0 018.994 8.991v54.02a8.992 8.992 0 01-8.994 8.991h-54.03a8.992 8.992 0 01-8.994-8.991V-7.81zm17.44 43.136c.002.025.003.05.003.076 0 .136.002.265.006.39.182 5.154 3.925 9.22 8.417 9.22h26.89c.813 0 1.503-.527 1.747-1.259H84.816c-4.163 0-7.473-3.907-7.473-8.658 0-.019 0-.037.002-.055a.899.899 0 01-.033-.293c.245-4.553 3.772-8.155 8.082-8.155h28.018V-1.464a2.394 2.394 0 00-2.394-2.394h-5.113c.149.492.228 1.012.228 1.55v17.952c0 1.258-1.195 1.814-2.173 1.027l-2.899-2.336-2.9 2.336c-.978.788-2.172.223-2.172-1.039v-19.49h-12.87A6.86 6.86 0 0076.257 3v32.252l-.003.075zm-1.795.001a.912.912 0 01-.003-.076V3a8.66 8.66 0 018.661-8.658h8.19a5.413 5.413 0 014.494-2.389h4.123c2.07 0 3.913.939 5.043 2.39l.032-.001h6.018a4.194 4.194 0 014.195 4.194v28.957c0 .293-.14.552-.355.717a.9.9 0 01-.123.214c.008-.01-.018.033-.07.144-.107.234-.22.56-.33.991-.329 1.302-.53 3.168-.53 5.693 0 2.528.202 4.439.533 5.815.186.77.355 1.17.433 1.287a.912.912 0 01.041.069.9.9 0 01.4.749 3.642 3.642 0 01-3.642 3.641H84.681c-5.511 0-10.002-4.878-10.216-10.957a12.56 12.56 0 01-.008-.453l.003-.075zM93.822-5.658h3.931a.9.9 0 01.036 1.799v18.518l3.272-2.636 3.272 2.636V-2.308c0-2.156-1.956-3.939-4.408-3.939h-4.123c-.72 0-1.403.211-1.98.589zm18.98 34.051H85.393c-3.323 0-6.089 2.825-6.284 6.452v.006a.9.9 0 01.033.245c0 3.817 2.577 6.858 5.673 6.858h27.893c-.04-.144-.08-.3-.12-.465-.368-1.523-.585-3.574-.585-6.237 0-2.665.217-4.678.587-6.135a10 10 0 01.21-.724zM85.285 39.9a.9.9 0 110-1.8h21.71a.9.9 0 110 1.8h-21.71zm-2.253-3.6a.9.9 0 110-1.8h21.524a.9.9 0 110 1.8H83.033zm24.146 0a.9.9 0 110-1.8h2.097a.9.9 0 110 1.8h-2.097zm-21.045-3.6a.9.9 0 110-1.8h21.887a.9.9 0 110 1.8H86.134zM80.6 19.628a.9.9 0 011.8 0v3.042a.9.9 0 01-1.8 0v-3.042zm0-20.837a.9.9 0 011.8 0v16.096a.9.9 0 01-1.8 0V-1.21zM270.234 13.71a.756.756 0 010-.243.9.9 0 01.9-.9h4.303a15.459 15.459 0 0110.146 3.843.9.9 0 01.08 1.269 1.116 1.116 0 01-.233.189 13.92 13.92 0 011.008 18.534 13.929 13.929 0 01-18.31 3.066 5.348 5.348 0 00-2.863-.864H250.86a6.303 6.303 0 00-3.24.954 13.902 13.902 0 01-14.192.091 13.895 13.895 0 01-6.874-12.412 13.696 13.696 0 014.015-9.297 1.017 1.017 0 01-.414-.261.9.9 0 01.081-1.269 15.414 15.414 0 0110.173-3.843h4.33a.9.9 0 01.9.9.98.98 0 010 .234h11.28V10.47a2.358 2.358 0 00-2.359-2.367h-17.04a4.168 4.168 0 110-8.334h16.32a3.087 3.087 0 003.08-3.069V-15h1.8v11.7a4.886 4.886 0 01-4.88 4.896h-16.32a2.367 2.367 0 100 4.734h17.041a4.16 4.16 0 014.159 4.167v3.231l11.514-.018zM222.054-7.8c0-4.97 4.03-9 9.002-9h54.013c4.972 0 9.003 4.03 9.003 9v54c0 4.97-4.03 9-9.003 9h-54.013c-4.971 0-9.002-4.03-9.002-9v-54zm1.8 0v54a7.2 7.2 0 007.202 7.2h54.013a7.2 7.2 0 007.202-7.2v-54a7.2 7.2 0 00-7.202-7.2h-54.013a7.2 7.2 0 00-7.201 7.2zm4.502 35.1a12.104 12.104 0 005.994 10.82 12.11 12.11 0 0012.37-.092 8.103 8.103 0 014.141-1.224h14.404a7.203 7.203 0 013.808 1.116 12.038 12.038 0 007.381 1.8c6.507-.502 11.451-6.059 11.192-12.578-.26-6.519-5.629-11.666-12.155-11.65h-34.757c-6.633-.036-12.111 5.182-12.378 11.808zm21.927-3.29a10.267 10.267 0 01-2.223 11.2 10.273 10.273 0 01-17.535-7.28 10.24 10.24 0 0110.254-10.26 10.294 10.294 0 019.504 6.34zm-17.35.68a8.467 8.467 0 001.822 9.24 8.473 8.473 0 0014.468-5.991 8.45 8.45 0 00-8.444-8.469 8.493 8.493 0 00-7.847 5.22zm53.532-1.533a11.698 11.698 0 01-2.496 12.772 11.705 11.705 0 01-20-8.251 11.645 11.645 0 0111.64-11.709 11.725 11.725 0 0110.856 7.188zm-7.78-1.78a3.23 3.23 0 01-4.23 4.216 3.231 3.231 0 01-1.989-2.991 3.222 3.222 0 013.232-3.231 3.254 3.254 0 012.987 2.006zm-2.987-.197a1.431 1.431 0 101.423 1.431 1.43 1.43 0 00-1.423-1.44v.009zm2.987 9.827a3.23 3.23 0 01-4.23 4.216 3.231 3.231 0 01-1.989-2.991 3.222 3.222 0 013.232-3.231 3.254 3.254 0 012.987 2.006zm-2.987-.197a1.431 1.431 0 101.423 1.431 1.43 1.43 0 00-1.423-1.44v.009zm-5.671-6.3a3.231 3.231 0 11-3.232 3.231 3.222 3.222 0 013.232-3.276v.045zm0 1.8a1.431 1.431 0 101.422 1.431 1.43 1.43 0 00-1.422-1.476v.045zm11.334-1.8a3.232 3.232 0 11-3.223 3.231 3.23 3.23 0 013.223-3.276v.045zm0 1.8a1.431 1.431 0 101.43 1.431 1.43 1.43 0 00-1.43-1.476v.045zm-14.946-2.428a9.898 9.898 0 002.106 10.81 9.904 9.904 0 0016.927-6.978 9.845 9.845 0 00-9.84-9.945c-4.01.02-7.64 2.415-9.193 6.113zm-21.315.565a3.303 3.303 0 110 6.606h-1.207v1.215a3.303 3.303 0 11-6.598 0v-1.215h-1.206a3.303 3.303 0 110-6.606h1.206v-1.206a3.303 3.303 0 116.598 0v1.206h1.207zm-1.306 1.8a1.7 1.7 0 01-1.701-1.701v-1.305a1.503 1.503 0 10-2.998 0v1.305a1.7 1.7 0 01-1.737 1.701h-1.27a1.503 1.503 0 100 3.006h1.27a1.702 1.702 0 011.701 1.701v1.314a1.503 1.503 0 102.998 0v-1.314a1.7 1.7 0 011.701-1.701h1.342a1.503 1.503 0 100-3.006h-1.306zm17.447 3.501a.9.9 0 011.08 1.44l-3.15 2.34a.9.9 0 01-1.081-1.44l3.15-2.34zm-5.663 0a.9.9 0 011.252.18.9.9 0 01-.18 1.26l-3.151 2.34a.9.9 0 11-1.072-1.44l3.151-2.34zm-13.273-2.713a.9.9 0 01-1.274-.005.675.675 0 00-.955 0 .693.693 0 000 .963.677.677 0 00.955 0 .9.9 0 011.278 1.269 2.476 2.476 0 110-3.501.9.9 0 01-.004 1.274zm11.257-8.132a.9.9 0 110-1.8h8.597a.9.9 0 110 1.8h-8.597zm7.373 2.268a.9.9 0 110-1.8h2.502a.9.9 0 110 1.8h-2.502zm-2.836 0a.9.9 0 110-1.8h.495a.9.9 0 110 1.8h-.495zm-7.373 0a.9.9 0 110-1.8h5.401a.9.9 0 110 1.8h-5.4zm72.176 21.789a3.703 3.703 0 01-1.243-1.845l-.729-2.46a3.728 3.728 0 01-.152-1.053V9.366c0-.528.113-1.05.33-1.53l1.163-2.567a3.71 3.71 0 013.38-2.179h5.209a.9.9 0 110 1.8h-5.21c-.75 0-1.43.438-1.739 1.122l-1.163 2.567a1.92 1.92 0 00-.17.787v28.236c0 .184.027.368.079.543l.729 2.458a1.91 1.91 0 001.83 1.367h25.494a1.91 1.91 0 001.831-1.367l.729-2.458c.052-.176.078-.359.078-.543V9.366c0-.272-.058-.54-.17-.787l-1.163-2.568a1.909 1.909 0 00-1.74-1.121h-5.911a.9.9 0 110-1.8h5.912a3.71 3.71 0 013.38 2.179l1.162 2.567a3.7 3.7 0 01.33 1.53v28.236c0 .358-.051.713-.152 1.055l-.729 2.458a3.703 3.703 0 01-1.242 1.845h7.363a.9.9 0 110 1.8h-41.65a.9.9 0 110-1.8h4.164zM303.674-7.809a8.992 8.992 0 018.994-8.991h54.03a8.992 8.992 0 018.994 8.991V46.21a8.992 8.992 0 01-8.994 8.991h-54.03a8.992 8.992 0 01-8.994-8.991V-7.81zm1.8 0V46.21a7.192 7.192 0 007.194 7.191h54.03a7.192 7.192 0 007.193-7.191V-7.81a7.192 7.192 0 00-7.193-7.19h-54.03a7.192 7.192 0 00-7.194 7.191zm40.99 17.289a.9.9 0 110-1.8h3.75a.9.9 0 110 1.8h-3.75zm-21.185 0a.9.9 0 110-1.8h3.88a.9.9 0 110 1.8h-3.88zm31.456 22.77h1.325c.632 0 1.182-.433 1.33-1.048l1.23-5.111c.025-.104.038-.211.038-.32v-9.415c0-.296-.096-.584-.274-.82l-.756-1.009a1.368 1.368 0 00-1.095-.547h-1.798c-.756 0-1.369.612-1.369 1.368v15.534c0 .756.613 1.368 1.369 1.368zm0 1.8a3.168 3.168 0 01-3.169-3.168V15.348a3.168 3.168 0 013.169-3.168h1.798c.998 0 1.936.47 2.535 1.267l.756 1.008c.412.548.634 1.215.634 1.901v9.415c0 .25-.03.499-.088.74l-1.229 5.112a3.17 3.17 0 01-3.081 2.427h-1.325zM339.62-2.684a7.38 7.38 0 00-6.96-4.936 7.376 7.376 0 00-6.813 4.557 7.877 7.877 0 013.835 1.441.9.9 0 11-1.049 1.463 6.087 6.087 0 00-3.562-1.142 6.093 6.093 0 00-3.201.902.9.9 0 01-.232.101 6.115 6.115 0 00.488 10.165.9.9 0 11-.928 1.543 7.92 7.92 0 012.774-14.598 9.177 9.177 0 018.688-6.232 9.178 9.178 0 019.032 7.563 6.925 6.925 0 013.21 5.847.897.897 0 01-.251.625 6.932 6.932 0 11-13.66-2.183.9.9 0 011.755.403 5.131 5.131 0 105-3.976.9.9 0 110-1.8c.65 0 1.278.09 1.874.257zm8.903-5.146a4.29 4.29 0 11-4.292 4.29 4.29 4.29 0 014.292-4.29zm0 1.8a2.49 2.49 0 10-.002 4.981 2.49 2.49 0 00.002-4.98zm-22.705 20.19a.9.9 0 011.8 0v19.98a.9.9 0 01-1.8 0V14.16zm5.762 0a.9.9 0 011.8 0v22.47a.9.9 0 01-1.8 0V14.16zm5.041 0a.9.9 0 011.8 0v23.67a.9.9 0 01-1.8 0V14.16zm5.041 0a.9.9 0 011.8 0v22.47a.9.9 0 01-1.8 0V14.16zm5.762 0a.9.9 0 011.8 0v19.98a.9.9 0 01-1.8 0V14.16zm57.674-7.58a.896.896 0 01.108.427V21.6c0 1.201.978 2.18 2.18 2.18h27.63c1.201 0 2.18-.979 2.18-2.18V8.588a.896.896 0 01-.108-.428V.483c0-1.202-.978-2.18-2.18-2.18h-27.63c-1.202 0-2.18.978-2.18 2.18V6.58zm33.79 0a.896.896 0 01.108.427V21.6a3.983 3.983 0 01-3.98 3.98h-27.63a3.983 3.983 0 01-3.98-3.98V7.896a.896.896 0 01-.109-.428V.483a3.983 3.983 0 013.98-3.98h27.631a3.983 3.983 0 013.98 3.98V6.58zM385.294-7.81a8.992 8.992 0 018.993-8.991h54.03a8.992 8.992 0 018.994 8.991v54.02a8.992 8.992 0 01-8.993 8.991h-54.03a8.992 8.992 0 01-8.994-8.991V-7.81zm1.8 0v54.02a7.192 7.192 0 007.193 7.191h54.03a7.192 7.192 0 007.194-7.191V-7.81a7.192 7.192 0 00-7.193-7.19h-54.03a7.192 7.192 0 00-7.194 7.191zm57.219 9.602v38.219a3.056 3.056 0 01-3.057 3.056h-40.108a3.056 3.056 0 01-3.057-3.056V1.792c0-5.89 4.776-10.665 10.668-10.665h24.886c5.891 0 10.668 4.776 10.668 10.666zm-33.223 3.32a.9.9 0 011.8 0v1.204a.9.9 0 01-1.8 0V5.114zm17.073 0a.9.9 0 011.8 0v1.204a.9.9 0 01-1.8 0V5.114zm14.35-3.32a8.867 8.867 0 00-8.868-8.866H408.76a8.866 8.866 0 00-8.867 8.866v38.219c0 .694.562 1.256 1.256 1.256h40.108c.694 0 1.256-.562 1.256-1.256V1.792zm-14.134 13.435a.9.9 0 110 1.8h-14.57a.9.9 0 110-1.8h14.57zm-15.799-1.552a.9.9 0 110 1.8h-.865a.9.9 0 110-1.8h.865zm17.868 0a.9.9 0 110 1.8h-.866a.9.9 0 110-1.8h.866zm-29.662 31.616h41.402a.703.703 0 00.703-.703v-.513a.703.703 0 00-.703-.703h-41.402a.703.703 0 00-.703.703v.513c0 .389.315.703.703.703zm0 1.8a2.503 2.503 0 01-2.503-2.503v-.513a2.503 2.503 0 012.503-2.503h41.402a2.503 2.503 0 012.503 2.503v.513a2.503 2.503 0 01-2.503 2.503h-41.402zm3.52-12.995a.9.9 0 110-1.8h4.852a.9.9 0 110 1.8h-4.852zm0-3.88a.9.9 0 110-1.8h4.852a.9.9 0 110 1.8h-4.852zm0 6.983a.9.9 0 110-1.8h4.852a.9.9 0 110 1.8h-4.852zm21.092-3.103a.9.9 0 110-1.8h12.7a.9.9 0 110 1.8h-12.7zM622.351 88.18a.896.896 0 01.108.427V103.2c0 1.201.98 2.18 2.18 2.18h27.63c1.202 0 2.18-.979 2.18-2.18V90.188a.896.896 0 01-.107-.428v-7.677c0-1.202-.978-2.18-2.18-2.18h-27.63c-1.202 0-2.18.978-2.18 2.18v6.097zm33.791 0a.896.896 0 01.108.427V103.2a3.983 3.983 0 01-3.98 3.98h-27.63a3.983 3.983 0 01-3.981-3.98V89.496a.896.896 0 01-.108-.428v-6.985a3.983 3.983 0 013.98-3.98h27.63a3.983 3.983 0 013.981 3.98v6.097zm-53.595-14.39a8.992 8.992 0 018.993-8.991h54.03a8.992 8.992 0 018.994 8.991v54.018a8.992 8.992 0 01-8.993 8.991h-54.03a8.992 8.992 0 01-8.994-8.991V73.79zm1.8 0v54.018A7.192 7.192 0 00611.54 135h54.03a7.192 7.192 0 007.194-7.191V73.79a7.192 7.192 0 00-7.193-7.191h-54.03a7.192 7.192 0 00-7.194 7.191zm57.219 9.602v38.219a3.056 3.056 0 01-3.057 3.056H618.4a3.056 3.056 0 01-3.057-3.056v-38.22c0-5.89 4.776-10.665 10.668-10.665h24.886c5.891 0 10.668 4.776 10.668 10.666zm-33.223 3.32a.9.9 0 011.8 0v1.204a.9.9 0 01-1.8 0v-1.203zm17.073 0a.9.9 0 011.8 0v1.204a.9.9 0 01-1.8 0v-1.203zm14.35-3.32a8.867 8.867 0 00-8.868-8.866h-24.886a8.866 8.866 0 00-8.868 8.866v38.219c0 .694.563 1.256 1.257 1.256h40.108c.694 0 1.256-.562 1.256-1.256v-38.22zm-14.134 13.435a.9.9 0 110 1.8h-14.57a.9.9 0 110-1.8h14.57zm-15.799-1.552a.9.9 0 110 1.8h-.865a.9.9 0 110-1.8h.865zm17.868 0a.9.9 0 110 1.8h-.866a.9.9 0 110-1.8h.866zm-29.662 31.616h41.402a.703.703 0 00.703-.703v-.513a.703.703 0 00-.703-.703h-41.402a.703.703 0 00-.703.703v.513c0 .389.315.703.703.703zm0 1.8a2.503 2.503 0 01-2.504-2.503v-.513a2.503 2.503 0 012.504-2.503h41.402a2.503 2.503 0 012.503 2.503v.513a2.503 2.503 0 01-2.503 2.503h-41.402zm3.52-12.995a.9.9 0 110-1.8h4.852a.9.9 0 110 1.8h-4.852zm0-3.88a.9.9 0 110-1.8h4.852a.9.9 0 110 1.8h-4.852zm0 6.983a.9.9 0 110-1.8h4.852a.9.9 0 110 1.8h-4.852zm21.092-3.103a.9.9 0 110-1.8h12.7a.9.9 0 110 1.8h-12.7zM149.436-15a7.2 7.2 0 00-7.201 7.2v54a7.2 7.2 0 007.201 7.2h54.014a7.2 7.2 0 007.201-7.2v-54a7.2 7.2 0 00-7.201-7.2h-54.014zm0-1.8h54.014c4.971 0 9.002 4.03 9.002 9v54c0 4.97-4.03 9-9.002 9h-54.014c-4.971 0-9.002-4.03-9.002-9v-54c0-4.97 4.03-9 9.002-9zm54.014 55.804V14.696c0-.996-.8-1.796-1.792-1.796h-50.43c-.982 0-1.792.809-1.792 1.796v24.308c0 .996.8 1.796 1.792 1.796h50.43c.981 0 1.792-.809 1.792-1.796zm1.8 0a3.602 3.602 0 01-3.592 3.596h-50.43a3.59 3.59 0 01-3.592-3.596V14.696a3.602 3.602 0 013.592-3.596h50.43a3.59 3.59 0 013.592 3.596v24.308zM195.798 15.6a4.95 4.95 0 11-4.952 4.95 4.95 4.95 0 014.952-4.95zm0 1.8a3.15 3.15 0 10-.001 6.3 3.15 3.15 0 00.001-6.3zm0 10.8a4.95 4.95 0 11-4.952 4.95 4.95 4.95 0 014.952-4.95zm0 1.8a3.15 3.15 0 10-.001 6.3 3.15 3.15 0 00.001-6.3zm0 1.8a1.35 1.35 0 110 2.7 1.35 1.35 0 010-2.7zm0-12.6a1.35 1.35 0 110 2.7 1.35 1.35 0 010-2.7zm-10.353-1.8h-30.607c.002 0 .002.9 0 2.7h30.607c-.002 0-.002-.9 0-2.7zm1.8 2.7c0 .993-.811 1.8-1.8 1.8h-30.607c-.995 0-1.8-.803-1.8-1.8v-2.7c0-.993.81-1.8 1.8-1.8h30.607c.995 0 1.8.803 1.8 1.8v2.7zm-27.006-2.7v.9a.9.9 0 01-1.8 0v-.9h1.8zm25.206 8.106c0-.003-10.202-.005-30.607-.006.003 0 .003 3.898 0 11.694 0 .003 10.202.005 30.607.006-.003 0-.003-3.898 0-11.694zm1.8 11.688c0 .995-.81 1.806-1.8 1.806h-30.607c-.996 0-1.8-.81-1.8-1.806V25.506c0-.995.81-1.806 1.8-1.806h30.607c.996 0 1.8.81 1.8 1.806v11.688zm8.115-28.645a.906.906 0 01-.012-.149V-2.4a.9.9 0 011.8 0V8.4c0 .05-.004.1-.012.15a2.7 2.7 0 011.813 2.55s-1.801-.004-1.801 0a.9.9 0 00-1.8-.002s-1.8.003-1.8-.002a2.7 2.7 0 011.812-2.547zM195.348-6.9a.9.9 0 011.8 0v1.8a.9.9 0 01-1.8 0v-1.8zm-40.51 52.2a.9.9 0 110-1.8h4.5a.9.9 0 110 1.8h-4.5zm38.71 0a.9.9 0 110-1.8h4.5a.9.9 0 110 1.8h-4.5zm310.472-4.588h14.64l.73-28.12a.878.878 0 011.756.045l-.036 1.4 1.952.776 4.298-10.435a.881.881 0 01.089-.163L519.207.053l-3.046-1.865a3.396 3.396 0 00-1.774-.5h-3.56a.878.878 0 110-1.756h3.56c.95 0 1.882.262 2.692.758l2.983 1.83 10.075 5.085a2.815 2.815 0 011.348 3.557l-3.397 8.507a2.823 2.823 0 01-3.665 1.575l-3.362-1.336-.702 26.99c-.05 1.958-1.642 3.522-3.592 3.522h-27.344a3.507 3.507 0 01-3.496-3.426l-.71-27.34-4.005 1.589a2.83 2.83 0 01-3.673-1.576l-3.398-8.501a2.818 2.818 0 011.352-3.563l10.014-5.048a.86.86 0 00.073-.042l3.539-2.164a2.827 2.827 0 011.48-.417h5.956a.878.878 0 110 1.756h-5.957c-.199 0-.393.054-.561.158L486.503.008a2.54 2.54 0 01-.209.116l-7.676 3.87c.132.093.24.224.306.384l4.206 10.214 2.038-.809-.03-1.146a.878.878 0 011.756-.045l.73 28.12h14.64V33.03a.878.878 0 011.756 0v7.683zm-1.756 3.951v-2.195H487.67l.013.48a1.75 1.75 0 001.74 1.715h12.841zm1.756 0h12.747c.995 0 1.81-.8 1.836-1.81l.01-.385H504.02v2.195zm-26.787-39.97l-.95.478c-.494.25-.715.832-.51 1.343l3.397 8.501c.219.548.842.815 1.393.596l.935-.371-4.199-10.193a.875.875 0 01-.066-.354zm51.77.306a.89.89 0 01-.018.048l-4.29 10.415.376.15a1.067 1.067 0 001.385-.594l3.397-8.507a1.06 1.06 0 00-.508-1.339L529.003 5zM466.913-7.15c0-5.33 4.322-9.65 9.653-9.65h52.713c5.33 0 9.652 4.32 9.652 9.65v52.7c0 5.33-4.321 9.65-9.652 9.65h-52.713c-5.33 0-9.652-4.32-9.652-9.65v-52.7zm1.757 0v52.7a7.895 7.895 0 007.896 7.894h52.713a7.895 7.895 0 007.896-7.894v-52.7a7.895 7.895 0 00-7.896-7.894h-52.713a7.895 7.895 0 00-7.896 7.894zm36.186 9.86a.878.878 0 01-1.473-.467l-1.104-5.764a.878.878 0 01.545-.983l7.21-2.797c.57-.222 1.223.194 1.232.806v2.62a.878.878 0 01-.268.643l-6.142 5.941zm4.648-6.94l-.014-.977-5.348 2.075.66 3.45 4.702-4.548zm-7.362 1.098l-5.348-2.075-.014.977 4.7 4.547.66-3.45zm-3.215-3.131h-3.909v-.878c0-.485.393-.879.878-.879h14.492c.485 0 .878.394.878.879v.878h-12.34l4.534 1.759a.878.878 0 01.545.983L502.9 2.243a.878.878 0 01-1.473.466l-6.142-5.941a.878.878 0 01-.268-.643v-2.62c.009-.612.662-1.028 1.233-.806l2.676 1.038zm-9.178 17.434v-2.59c0-1.182 1-2.113 2.204-2.113h3.251c1.218 0 2.23.942 2.23 2.136v2.567c0 2.024-1.735 3.639-3.843 3.639-2.109 0-3.842-1.615-3.842-3.639zm1.756 0c0 1.025.92 1.883 2.086 1.883 1.165 0 2.086-.858 2.086-1.883V8.604c0-.195-.198-.38-.473-.38h-3.251c-.261 0-.448.174-.448.357v2.59zm12.376 22.99a.878.878 0 01-1.478-.947l3.496-5.453c.256-.4.362-.871.3-1.336l-3.928-29.5a.878.878 0 011.742-.231l3.927 29.499a3.742 3.742 0 01-.562 2.516l-3.497 5.453zm0-.948a.878.878 0 11-1.477.95l-3.428-5.323a4.146 4.146 0 01-.628-2.798l3.924-29.349a.878.878 0 011.74.233l-3.923 29.348a2.39 2.39 0 00.364 1.615l3.428 5.324zM550.334-7.81v54.02a7.192 7.192 0 007.193 7.191h54.03a7.192 7.192 0 007.194-7.191V-7.81a7.192 7.192 0 00-7.193-7.19h-54.03a7.192 7.192 0 00-7.194 7.191zm-1.8 0a8.992 8.992 0 018.993-8.991h54.03a8.992 8.992 0 018.994 8.991v54.02a8.992 8.992 0 01-8.993 8.991h-54.03a8.992 8.992 0 01-8.994-8.991V-7.81zm17.44 43.136c.002.025.003.05.003.076 0 .136.002.265.007.39.181 5.154 3.925 9.22 8.416 9.22h26.89c.813 0 1.504-.527 1.748-1.259h-28.503c-4.163 0-7.473-3.907-7.473-8.658 0-.019 0-.037.002-.055a.899.899 0 01-.032-.293c.244-4.553 3.771-8.155 8.08-8.155h28.02V-1.464a2.394 2.394 0 00-2.395-2.394h-5.113c.149.492.229 1.012.229 1.55v17.952c0 1.258-1.196 1.814-2.173 1.027l-2.9-2.336-2.899 2.336c-.98.788-2.173.223-2.173-1.039v-19.49h-12.87A6.86 6.86 0 00565.976 3v32.252l-.003.075zm-1.794.001a.912.912 0 01-.003-.076V3a8.66 8.66 0 018.66-8.658h8.191a5.413 5.413 0 014.493-2.389h4.124c2.07 0 3.912.939 5.042 2.39l.032-.001h6.018a4.194 4.194 0 014.195 4.194v28.957a.899.899 0 01-.355.717.9.9 0 01-.123.214c.008-.01-.018.033-.069.144-.107.234-.22.56-.33.991-.33 1.302-.531 3.168-.531 5.693 0 2.528.202 4.439.534 5.815.185.77.354 1.17.432 1.287a.912.912 0 01.042.069.9.9 0 01.4.749 3.642 3.642 0 01-3.642 3.641H574.4c-5.511 0-10.001-4.878-10.216-10.957a12.56 12.56 0 01-.007-.453c0-.025 0-.05.003-.075zm19.362-40.986h3.93a.9.9 0 01.037 1.799v18.518l3.271-2.636 3.272 2.636V-2.308c0-2.156-1.956-3.939-4.407-3.939h-4.124c-.72 0-1.403.211-1.98.589zm18.979 34.051h-27.408c-3.322 0-6.089 2.825-6.284 6.452v.006a.9.9 0 01.034.245c0 3.817 2.576 6.858 5.672 6.858h27.894c-.041-.144-.082-.3-.122-.465-.367-1.523-.584-3.574-.584-6.237 0-2.665.218-4.678.587-6.135a10 10 0 01.21-.724zM575.005 39.9a.9.9 0 110-1.8h21.711a.9.9 0 110 1.8h-21.711zm-2.253-3.6a.9.9 0 110-1.8h21.525a.9.9 0 110 1.8h-21.525zm24.147 0a.9.9 0 110-1.8h2.096a.9.9 0 110 1.8H596.9zm-21.046-3.6a.9.9 0 110-1.8h21.887a.9.9 0 110 1.8h-21.887zm-5.534-13.072a.9.9 0 011.8 0v3.042a.9.9 0 01-1.8 0v-3.042zm0-20.837a.9.9 0 011.8 0v16.096a.9.9 0 01-1.8 0V-1.21zM759.953 13.71a.756.756 0 010-.243.9.9 0 01.9-.9h4.303a15.459 15.459 0 0110.146 3.843.9.9 0 01.08 1.269 1.09 1.09 0 01-.233.189 13.92 13.92 0 011.008 18.534 13.929 13.929 0 01-18.31 3.066 5.348 5.348 0 00-2.863-.864H740.58a6.303 6.303 0 00-3.24.954 13.902 13.902 0 01-14.191.091 13.895 13.895 0 01-6.875-12.412 13.696 13.696 0 014.015-9.297 1.017 1.017 0 01-.414-.261.9.9 0 01.081-1.269 15.414 15.414 0 0110.173-3.843h4.33a.9.9 0 01.9.9.98.98 0 010 .234h11.28V10.47a2.358 2.358 0 00-2.359-2.367h-17.04a4.168 4.168 0 110-8.334h16.32a3.087 3.087 0 003.08-3.069V-15h1.8v11.7a4.886 4.886 0 01-4.879 4.896h-16.32a2.367 2.367 0 100 4.734h17.04a4.16 4.16 0 014.16 4.167v3.231l11.513-.018zM711.773-7.8c0-4.97 4.03-9 9.003-9h54.013a9.001 9.001 0 019.002 9v54c0 4.97-4.03 9-9.002 9h-54.013c-4.972 0-9.003-4.03-9.003-9v-54zm1.8 0v54a7.2 7.2 0 007.203 7.2h54.013a7.2 7.2 0 007.201-7.2v-54a7.2 7.2 0 00-7.201-7.2h-54.013a7.2 7.2 0 00-7.202 7.2zm4.502 35.1a12.104 12.104 0 005.994 10.82 12.11 12.11 0 0012.37-.092 8.103 8.103 0 014.141-1.224h14.404a7.203 7.203 0 013.808 1.116 12.038 12.038 0 007.382 1.8c6.506-.502 11.45-6.059 11.191-12.578-.259-6.519-5.629-11.666-12.155-11.65h-34.757c-6.633-.036-12.111 5.182-12.378 11.808zm21.927-3.29a10.267 10.267 0 01-2.223 11.2 10.273 10.273 0 01-17.535-7.28 10.24 10.24 0 0110.254-10.26 10.294 10.294 0 019.504 6.34zm-17.35.68a8.467 8.467 0 001.823 9.24 8.473 8.473 0 0014.467-5.991 8.45 8.45 0 00-8.444-8.469 8.493 8.493 0 00-7.846 5.22zm53.532-1.533a11.698 11.698 0 01-2.496 12.772 11.705 11.705 0 01-20-8.251 11.645 11.645 0 0111.64-11.709 11.725 11.725 0 0110.856 7.188zm-7.78-1.78a3.23 3.23 0 01-4.23 4.216 3.231 3.231 0 01-1.988-2.991 3.222 3.222 0 013.231-3.231 3.254 3.254 0 012.987 2.006zm-2.987-.197a1.431 1.431 0 101.423 1.431 1.43 1.43 0 00-1.423-1.44v.009zm2.987 9.827a3.23 3.23 0 01-4.23 4.216 3.231 3.231 0 01-1.988-2.991 3.222 3.222 0 013.231-3.231 3.254 3.254 0 012.987 2.006zm-2.987-.197a1.431 1.431 0 101.423 1.431 1.43 1.43 0 00-1.423-1.44v.009zm-5.67-6.3a3.231 3.231 0 11-3.233 3.231 3.222 3.222 0 013.232-3.276v.045zm0 1.8a1.431 1.431 0 101.421 1.431 1.43 1.43 0 00-1.422-1.476v.045zm11.333-1.8a3.232 3.232 0 11-3.223 3.231 3.23 3.23 0 013.223-3.276v.045zm0 1.8a1.431 1.431 0 101.431 1.431 1.43 1.43 0 00-1.431-1.476v.045zm-14.946-2.428a9.898 9.898 0 002.106 10.81 9.904 9.904 0 0016.927-6.978 9.845 9.845 0 00-9.84-9.945c-4.01.02-7.64 2.415-9.193 6.113zm-21.315.565a3.303 3.303 0 110 6.606h-1.206v1.215a3.303 3.303 0 11-6.599 0v-1.215h-1.206a3.303 3.303 0 110-6.606h1.206v-1.206a3.303 3.303 0 116.599 0v1.206h1.206zm-1.305 1.8c-.94 0-1.702-.762-1.702-1.701v-1.305a1.503 1.503 0 10-2.997 0v1.305a1.7 1.7 0 01-1.738 1.701h-1.27a1.503 1.503 0 100 3.006h1.27a1.702 1.702 0 011.702 1.701v1.314a1.503 1.503 0 102.997 0v-1.314c0-.94.762-1.701 1.702-1.701h1.341a1.503 1.503 0 100-3.006h-1.305zm17.446 3.501a.9.9 0 011.08 1.44l-3.15 2.34a.9.9 0 01-1.08-1.44l3.15-2.34zm-5.662 0a.9.9 0 011.25.18.9.9 0 01-.18 1.26l-3.15 2.34a.9.9 0 11-1.071-1.44l3.15-2.34zm-13.274-2.713a.9.9 0 01-1.274-.005.675.675 0 00-.954 0 .693.693 0 000 .963c.263.263.69.263.954 0a.9.9 0 011.278 1.269 2.476 2.476 0 110-3.501.9.9 0 01-.004 1.274zm11.257-8.132a.9.9 0 110-1.8h8.597a.9.9 0 110 1.8h-8.597zm7.373 2.268a.9.9 0 110-1.8h2.502a.9.9 0 110 1.8h-2.502zm-2.836 0a.9.9 0 110-1.8h.495a.9.9 0 110 1.8h-.495zm-7.373 0a.9.9 0 110-1.8h5.402a.9.9 0 110 1.8h-5.402zm72.177 21.789a3.703 3.703 0 01-1.243-1.845l-.73-2.46a3.728 3.728 0 01-.151-1.053V9.366a3.7 3.7 0 01.33-1.53l1.163-2.567a3.71 3.71 0 013.38-2.179h5.208a.9.9 0 110 1.8h-5.209c-.75 0-1.43.438-1.74 1.122l-1.163 2.567a1.92 1.92 0 00-.169.787v28.236c0 .184.026.368.078.543l.729 2.458a1.91 1.91 0 001.831 1.367h25.493a1.91 1.91 0 001.831-1.367l.729-2.458c.052-.176.078-.359.078-.543V9.366c0-.272-.057-.54-.17-.787l-1.162-2.568a1.909 1.909 0 00-1.74-1.121h-5.912a.9.9 0 110-1.8h5.912a3.71 3.71 0 013.38 2.179l1.163 2.567c.217.48.33 1.002.33 1.53v28.236c0 .358-.052.713-.153 1.055l-.728 2.458a3.703 3.703 0 01-1.243 1.845h7.363a.9.9 0 110 1.8h-41.65a.9.9 0 110-1.8h4.165zM793.393-7.809a8.992 8.992 0 018.994-8.991h54.03a8.992 8.992 0 018.994 8.991V46.21a8.992 8.992 0 01-8.994 8.991h-54.03a8.992 8.992 0 01-8.994-8.991V-7.81zm1.8 0V46.21a7.192 7.192 0 007.194 7.191h54.03a7.192 7.192 0 007.193-7.191V-7.81a7.192 7.192 0 00-7.193-7.19h-54.03a7.192 7.192 0 00-7.193 7.191zm40.99 17.289a.9.9 0 110-1.8h3.75a.9.9 0 110 1.8h-3.75zM815 9.48a.9.9 0 110-1.8h3.88a.9.9 0 110 1.8H815zm31.455 22.77h1.325c.633 0 1.183-.433 1.33-1.048l1.23-5.111c.025-.104.038-.211.038-.32v-9.415c0-.296-.096-.584-.274-.82l-.756-1.009a1.368 1.368 0 00-1.095-.547h-1.798c-.756 0-1.368.612-1.368 1.368v15.534c0 .756.612 1.368 1.368 1.368zm0 1.8a3.168 3.168 0 01-3.169-3.168V15.348a3.168 3.168 0 013.17-3.168h1.797c.998 0 1.937.47 2.535 1.267l.756 1.008c.412.548.634 1.215.634 1.901v9.415c0 .25-.029.499-.087.74l-1.23 5.112a3.17 3.17 0 01-3.08 2.427h-1.326zM829.34-2.684a7.38 7.38 0 00-6.96-4.936 7.376 7.376 0 00-6.813 4.557 7.877 7.877 0 013.836 1.441.9.9 0 11-1.05 1.463 6.087 6.087 0 00-3.561-1.142 6.093 6.093 0 00-3.202.902.9.9 0 01-.232.101 6.115 6.115 0 00.488 10.165.9.9 0 11-.928 1.543 7.92 7.92 0 012.774-14.598 9.177 9.177 0 018.688-6.232 9.178 9.178 0 019.032 7.563 6.925 6.925 0 013.211 5.847.897.897 0 01-.252.625 6.932 6.932 0 11-13.66-2.183.9.9 0 011.755.403 5.131 5.131 0 105-3.976.9.9 0 110-1.8c.65 0 1.278.09 1.874.257zm8.903-5.146a4.29 4.29 0 11-4.291 4.29 4.29 4.29 0 014.291-4.29zm0 1.8a2.49 2.49 0 10-.001 4.981 2.49 2.49 0 00.001-4.98zM815.54 14.16a.9.9 0 011.8 0v19.98a.9.9 0 01-1.8 0V14.16zm5.761 0a.9.9 0 011.8 0v22.47a.9.9 0 01-1.8 0V14.16zm5.041 0a.9.9 0 011.8 0v23.67a.9.9 0 01-1.8 0V14.16zm5.042 0a.9.9 0 011.8 0v22.47a.9.9 0 01-1.8 0V14.16zm5.76 0a.9.9 0 011.801 0v19.98a.9.9 0 01-1.8 0V14.16zM639.157-15a7.2 7.2 0 00-7.202 7.2v54a7.2 7.2 0 007.202 7.2h54.013a7.2 7.2 0 007.202-7.2v-54a7.2 7.2 0 00-7.202-7.2h-54.013zm0-1.8h54.013a9.001 9.001 0 019.002 9v54c0 4.97-4.03 9-9.002 9h-54.013a9.001 9.001 0 01-9.002-9v-54c0-4.97 4.03-9 9.002-9zm54.013 55.804V14.696c0-.996-.8-1.796-1.792-1.796h-50.43c-.981 0-1.791.809-1.791 1.796v24.308c0 .996.8 1.796 1.791 1.796h50.43c.982 0 1.792-.809 1.792-1.796zm1.8 0a3.602 3.602 0 01-3.592 3.596h-50.43a3.59 3.59 0 01-3.592-3.596V14.696a3.602 3.602 0 013.592-3.596h50.43a3.59 3.59 0 013.592 3.596v24.308zM685.517 15.6a4.95 4.95 0 11-4.951 4.95 4.95 4.95 0 014.951-4.95zm0 1.8a3.15 3.15 0 10-.001 6.3 3.15 3.15 0 00.001-6.3zm0 10.8a4.95 4.95 0 11-4.951 4.95 4.95 4.95 0 014.951-4.95zm0 1.8a3.15 3.15 0 10-.001 6.3 3.15 3.15 0 00.001-6.3zm0 1.8a1.35 1.35 0 110 2.7 1.35 1.35 0 010-2.7zm0-12.6a1.35 1.35 0 110 2.7 1.35 1.35 0 010-2.7zm-10.353-1.8h-30.607c.002 0 .002.9 0 2.7h30.607c-.002 0-.002-.9 0-2.7zm1.8 2.7c0 .993-.81 1.8-1.8 1.8h-30.607c-.995 0-1.8-.803-1.8-1.8v-2.7c0-.993.811-1.8 1.8-1.8h30.607c.995 0 1.8.803 1.8 1.8v2.7zm-27.006-2.7v.9a.9.9 0 01-1.8 0v-.9h1.8zm25.206 8.106c0-.003-10.202-.005-30.607-.006.003 0 .003 3.898 0 11.694 0 .003 10.202.005 30.607.006-.003 0-.003-3.898 0-11.694zm1.8 11.688c0 .995-.81 1.806-1.8 1.806h-30.607c-.996 0-1.8-.81-1.8-1.806V25.506c0-.995.81-1.806 1.8-1.806h30.607c.996 0 1.8.81 1.8 1.806v11.688zm8.115-28.645a.906.906 0 01-.012-.149V-2.4a.9.9 0 011.8 0V8.4c0 .05-.004.1-.012.15a2.7 2.7 0 011.813 2.55s-1.8-.004-1.8 0a.9.9 0 00-1.801-.002s-1.8.003-1.8-.002a2.7 2.7 0 011.812-2.547zM685.067-6.9a.9.9 0 011.8 0v1.8a.9.9 0 01-1.8 0v-1.8zm-40.51 52.2a.9.9 0 110-1.8h4.501a.9.9 0 110 1.8h-4.501zm38.71 0a.9.9 0 110-1.8h4.5a.9.9 0 110 1.8h-4.5zm38.006 77.012h14.639l.731-28.12a.878.878 0 011.756.045l-.036 1.4 1.952.776 4.298-10.435a.881.881 0 01.089-.163l-8.242-4.162-3.046-1.865a3.396 3.396 0 00-1.774-.5h-3.56a.878.878 0 110-1.756h3.56c.95 0 1.882.262 2.692.758l2.983 1.83 10.075 5.085a2.815 2.815 0 011.348 3.557l-3.397 8.507a2.823 2.823 0 01-3.665 1.575l-3.362-1.336-.702 26.99c-.05 1.958-1.642 3.522-3.592 3.522h-27.344a3.507 3.507 0 01-3.496-3.426l-.71-27.34-4.005 1.589a2.83 2.83 0 01-3.673-1.576l-3.398-8.501a2.818 2.818 0 011.352-3.563l10.014-5.048a.86.86 0 00.073-.042l3.538-2.164a2.827 2.827 0 011.48-.417h5.957a.878.878 0 110 1.756h-5.957a1.07 1.07 0 00-.562.158l-3.533 2.162a2.54 2.54 0 01-.209.116l-7.676 3.87c.132.093.24.224.306.384l4.206 10.214 2.038-.809-.03-1.146a.878.878 0 011.756-.045l.73 28.12h14.64v-7.683a.878.878 0 011.756 0v7.683zm-1.756 3.951v-2.195h-14.594l.013.48a1.75 1.75 0 001.74 1.715h12.841zm1.756 0h12.747c.994 0 1.81-.8 1.836-1.81l.01-.385h-14.593v2.195zm-26.787-39.97l-.95.478c-.494.25-.715.832-.51 1.343l3.397 8.501c.219.548.842.815 1.393.596l.935-.371-4.199-10.193a.875.875 0 01-.066-.354zm51.77.306a.89.89 0 01-.018.048l-4.29 10.415.376.15a1.067 1.067 0 001.385-.594l3.397-8.507a1.06 1.06 0 00-.508-1.339l-.343-.173zm-62.09-12.149c0-5.33 4.322-9.65 9.653-9.65h52.713c5.33 0 9.652 4.32 9.652 9.65v52.7c0 5.33-4.321 9.65-9.652 9.65h-52.713c-5.33 0-9.652-4.32-9.652-9.65v-52.7zm1.757 0v52.7a7.895 7.895 0 007.896 7.894h52.713a7.895 7.895 0 007.896-7.894v-52.7a7.895 7.895 0 00-7.896-7.894h-52.713a7.895 7.895 0 00-7.896 7.894zm36.186 9.86a.878.878 0 01-1.473-.467l-1.104-5.764a.878.878 0 01.545-.983l7.209-2.797c.57-.222 1.224.194 1.233.806v2.62a.878.878 0 01-.268.643l-6.142 5.941zm4.648-6.94l-.014-.977-5.348 2.075.66 3.45 4.702-4.548zm-7.362 1.098l-5.348-2.075-.014.977 4.701 4.547.66-3.45zm-3.216-3.131h-3.908v-.878c0-.485.393-.879.878-.879h14.492c.485 0 .878.394.878.879v.878h-12.34l4.534 1.759a.878.878 0 01.545.983l-1.104 5.764a.878.878 0 01-1.473.466l-6.142-5.941a.878.878 0 01-.268-.643v-2.62c.009-.612.662-1.028 1.233-.806l2.675 1.038zm-9.178 17.434v-2.59c0-1.182 1-2.113 2.205-2.113h3.251c1.218 0 2.23.942 2.23 2.136v2.567c0 2.024-1.735 3.639-3.843 3.639-2.109 0-3.843-1.615-3.843-3.639zm1.757 0c0 1.025.92 1.883 2.086 1.883 1.165 0 2.086-.858 2.086-1.883v-2.567c0-.195-.198-.38-.473-.38h-3.251c-.261 0-.448.174-.448.357v2.59zm12.376 22.99a.878.878 0 01-1.478-.947l3.496-5.453c.256-.4.362-.871.3-1.336l-3.928-29.5a.878.878 0 011.742-.231l3.927 29.499a3.742 3.742 0 01-.562 2.516l-3.497 5.453zm0-.948a.878.878 0 11-1.478.95l-3.427-5.323a4.146 4.146 0 01-.628-2.798l3.923-29.349a.878.878 0 011.742.233l-3.924 29.348a2.39 2.39 0 00.364 1.615l3.428 5.324zm46.453-41.022v54.018A7.192 7.192 0 00774.78 135h54.03a7.192 7.192 0 007.194-7.191V73.79a7.192 7.192 0 00-7.194-7.191h-54.03a7.192 7.192 0 00-7.193 7.191zm-1.8 0a8.992 8.992 0 018.993-8.991h54.03a8.992 8.992 0 018.994 8.991v54.018a8.992 8.992 0 01-8.994 8.991h-54.03a8.992 8.992 0 01-8.993-8.991V73.79zm17.44 43.136c.002.025.003.05.003.076 0 .136.002.265.007.39.181 5.154 3.925 9.22 8.416 9.22h26.89a1.84 1.84 0 001.747-1.259h-28.502c-4.163 0-7.473-3.907-7.473-8.658 0-.019 0-.037.002-.055a.899.899 0 01-.032-.293c.244-4.553 3.771-8.155 8.08-8.155h28.02V80.136a2.394 2.394 0 00-2.395-2.394h-5.113c.149.492.228 1.012.228 1.55v17.952c0 1.258-1.195 1.814-2.172 1.027l-2.9-2.336-2.9 2.336c-.978.788-2.172.223-2.172-1.039v-19.49h-12.87a6.86 6.86 0 00-6.861 6.858v32.252l-.003.075zm-1.794.001a.911.911 0 01-.004-.076V84.6a8.66 8.66 0 018.661-8.658h8.191a5.413 5.413 0 014.493-2.389h4.124c2.069 0 3.912.939 5.042 2.39l.032-.001h6.018a4.194 4.194 0 014.195 4.194v28.957a.899.899 0 01-.355.717.9.9 0 01-.123.214c.008-.01-.018.033-.069.144-.107.234-.22.56-.33.991-.33 1.302-.532 3.168-.532 5.693 0 2.528.203 4.439.535 5.815.185.77.354 1.17.432 1.287a.912.912 0 01.042.069.9.9 0 01.4.749 3.642 3.642 0 01-3.643 3.641h-26.889c-5.511 0-10.001-4.878-10.216-10.957a12.56 12.56 0 01-.007-.453c0-.025 0-.05.003-.075zm19.362-40.986h3.93a.9.9 0 01.037 1.799v18.518l3.271-2.636 3.272 2.636V79.292c0-2.156-1.956-3.939-4.407-3.939h-4.124c-.72 0-1.403.211-1.98.589zm18.979 34.051h-27.408c-3.322 0-6.089 2.825-6.284 6.452v.006a.9.9 0 01.034.245c0 3.817 2.576 6.858 5.672 6.858h27.894c-.041-.144-.082-.3-.122-.465-.367-1.523-.584-3.574-.584-6.237 0-2.665.218-4.678.587-6.135a10 10 0 01.21-.724zM792.258 121.5a.9.9 0 110-1.8h21.71a.9.9 0 110 1.8h-21.71zm-2.253-3.6a.9.9 0 110-1.8h21.524a.9.9 0 110 1.8h-21.524zm24.147 0a.9.9 0 110-1.8h2.096a.9.9 0 110 1.8h-2.096zm-21.046-3.6a.9.9 0 110-1.8h21.887a.9.9 0 110 1.8h-21.887zm-5.534-13.072a.9.9 0 011.8 0v3.042a.9.9 0 01-1.8 0v-3.042zm0-20.837a.9.9 0 011.8 0v16.096a.9.9 0 01-1.8 0V80.39zM-2.233 95.31a.756.756 0 010-.243.9.9 0 01.9-.9h4.304a15.459 15.459 0 0110.145 3.843.9.9 0 01.081 1.269c-.07.073-.148.137-.234.189a13.92 13.92 0 011.009 18.534 13.929 13.929 0 01-18.311 3.066 5.348 5.348 0 00-2.863-.864h-14.403a6.303 6.303 0 00-3.241.954 13.902 13.902 0 01-14.19.091 13.895 13.895 0 01-6.875-12.412 13.696 13.696 0 014.015-9.297 1.017 1.017 0 01-.414-.261.9.9 0 01.08-1.269 15.414 15.414 0 0110.173-3.843h4.33a.9.9 0 01.9.9.98.98 0 010 .234h11.28V92.07a2.358 2.358 0 00-2.358-2.367h-17.042a4.168 4.168 0 110-8.334h16.321a3.087 3.087 0 003.08-3.069V66.6h1.8v11.7a4.886 4.886 0 01-4.88 4.896h-16.32a2.367 2.367 0 100 4.734h17.04a4.16 4.16 0 014.16 4.167v3.231l11.513-.018zm-48.18-21.51c0-4.97 4.031-9 9.003-9h54.013a9.001 9.001 0 019.002 9v54c0 4.97-4.03 9-9.002 9H-41.41a9.001 9.001 0 01-9.002-9v-54zm1.801 0v54a7.2 7.2 0 007.202 7.2h54.013a7.2 7.2 0 007.202-7.2v-54a7.2 7.2 0 00-7.202-7.2H-41.41a7.2 7.2 0 00-7.202 7.2zm4.501 35.1a12.104 12.104 0 005.994 10.82 12.11 12.11 0 0012.37-.092 8.103 8.103 0 014.142-1.224h14.403a7.203 7.203 0 013.808 1.116 12.038 12.038 0 007.382 1.8c6.507-.502 11.45-6.059 11.192-12.578-.26-6.519-5.63-11.666-12.155-11.65h-34.758c-6.632-.036-12.11 5.182-12.378 11.808zm21.927-3.29a10.267 10.267 0 01-2.223 11.2 10.273 10.273 0 01-17.534-7.28 10.24 10.24 0 0110.253-10.26 10.294 10.294 0 019.504 6.34zm-17.35.68a8.467 8.467 0 001.823 9.24 8.473 8.473 0 0014.467-5.991 8.45 8.45 0 00-8.444-8.469 8.493 8.493 0 00-7.846 5.22zm53.533-1.533a11.698 11.698 0 01-2.497 12.772 11.705 11.705 0 01-20-8.251 11.645 11.645 0 0111.64-11.709 11.725 11.725 0 0110.857 7.188zm-7.78-1.78a3.23 3.23 0 01-4.23 4.216A3.231 3.231 0 010 104.202a3.222 3.222 0 013.232-3.231 3.254 3.254 0 012.986 2.006zm-2.987-.197a1.431 1.431 0 101.422 1.431 1.43 1.43 0 00-1.422-1.44v.009zm2.986 9.827a3.23 3.23 0 01-4.23 4.216A3.231 3.231 0 010 113.832a3.222 3.222 0 013.232-3.231 3.254 3.254 0 012.986 2.006zm-2.986-.197a1.431 1.431 0 101.422 1.431 1.43 1.43 0 00-1.422-1.44v.009zm-5.672-6.3a3.231 3.231 0 11-3.231 3.231 3.222 3.222 0 013.231-3.276v.045zm0 1.8a1.431 1.431 0 101.423 1.431 1.43 1.43 0 00-1.423-1.476v.045zm11.334-1.8a3.232 3.232 0 11-3.223 3.231 3.23 3.23 0 013.223-3.276v.045zm0 1.8a1.431 1.431 0 101.432 1.431 1.43 1.43 0 00-1.432-1.476v.045zm-14.946-2.428a9.898 9.898 0 002.106 10.81 9.904 9.904 0 0016.927-6.978 9.845 9.845 0 00-9.84-9.945c-4.01.02-7.64 2.415-9.193 6.113zm-21.315.565a3.303 3.303 0 110 6.606h-1.206v1.215a3.303 3.303 0 11-6.599 0v-1.215h-1.206a3.303 3.303 0 110-6.606h1.206v-1.206a3.303 3.303 0 116.599 0v1.206h1.206zm-1.305 1.8a1.7 1.7 0 01-1.701-1.701v-1.305a1.503 1.503 0 10-2.998 0v1.305a1.7 1.7 0 01-1.738 1.701h-1.269a1.503 1.503 0 100 3.006h1.27a1.702 1.702 0 011.7 1.701v1.314a1.503 1.503 0 102.999 0v-1.314a1.7 1.7 0 011.701-1.701h1.341a1.503 1.503 0 100-3.006h-1.305zm17.446 3.501a.9.9 0 011.08 1.44l-3.15 2.34a.9.9 0 01-1.08-1.44l3.15-2.34zm-5.662 0a.9.9 0 011.251.18.9.9 0 01-.18 1.26l-3.15 2.34a.9.9 0 11-1.072-1.44l3.15-2.34zm-13.274-2.713a.9.9 0 01-1.274-.005.675.675 0 00-.954 0 .693.693 0 000 .963c.264.263.69.263.954 0a.9.9 0 011.279 1.269 2.476 2.476 0 110-3.501.9.9 0 01-.005 1.273zm11.257-8.132a.9.9 0 110-1.8h8.597a.9.9 0 110 1.8h-8.597zm7.373 2.268a.9.9 0 110-1.8h2.503a.9.9 0 110 1.8h-2.503zm-2.835 0a.9.9 0 110-1.8h.495a.9.9 0 110 1.8h-.495zm-7.373 0a.9.9 0 110-1.8h5.401a.9.9 0 110 1.8h-5.401zm72.176 21.789a3.703 3.703 0 01-1.243-1.845l-.73-2.46a3.728 3.728 0 01-.151-1.053V90.966a3.7 3.7 0 01.33-1.53l1.163-2.567a3.71 3.71 0 013.38-2.179h5.209a.9.9 0 110 1.8h-5.21c-.75 0-1.43.438-1.739 1.122l-1.163 2.567c-.112.247-.17.515-.17.787v28.236c0 .184.027.368.078.543l.73 2.458a1.91 1.91 0 001.83 1.367h25.494a1.91 1.91 0 001.83-1.367l.73-2.458c.051-.176.078-.359.078-.543V90.966c0-.272-.058-.54-.17-.787l-1.163-2.568a1.909 1.909 0 00-1.74-1.121h-5.911a.9.9 0 110-1.8h5.912a3.71 3.71 0 013.38 2.179l1.162 2.567a3.7 3.7 0 01.33 1.53v28.236c0 .358-.051.713-.153 1.055l-.728 2.458a3.703 3.703 0 01-1.243 1.845h7.364a.9.9 0 110 1.8H46.27a.9.9 0 110-1.8h4.165zM31.208 73.791A8.992 8.992 0 0140.2 64.8h54.03a8.992 8.992 0 018.994 8.991v54.018a8.992 8.992 0 01-8.993 8.991h-54.03a8.992 8.992 0 01-8.994-8.991V73.79zm1.8 0v54.018A7.192 7.192 0 0040.201 135h54.03a7.192 7.192 0 007.194-7.191V73.79a7.192 7.192 0 00-7.193-7.191h-54.03a7.192 7.192 0 00-7.194 7.191zm40.99 17.289a.9.9 0 110-1.8h3.75a.9.9 0 110 1.8h-3.75zm-21.185 0a.9.9 0 110-1.8h3.88a.9.9 0 110 1.8h-3.88zm31.455 22.77h1.326c.632 0 1.182-.433 1.33-1.048l1.23-5.111c.025-.104.037-.211.037-.32v-9.415c0-.296-.096-.584-.273-.82l-.757-1.009a1.368 1.368 0 00-1.094-.547h-1.799c-.756 0-1.368.612-1.368 1.368v15.534c0 .756.612 1.368 1.368 1.368zm0 1.8a3.168 3.168 0 01-3.168-3.168V96.948a3.168 3.168 0 013.168-3.168h1.799c.997 0 1.936.47 2.535 1.267l.756 1.008c.411.548.634 1.215.634 1.901v9.415c0 .25-.03.499-.088.74l-1.23 5.112a3.17 3.17 0 01-3.08 2.427h-1.326zM67.155 78.916a7.38 7.38 0 00-6.96-4.936 7.376 7.376 0 00-6.813 4.557 7.877 7.877 0 013.835 1.441.9.9 0 11-1.05 1.463 6.087 6.087 0 00-3.561-1.142 6.093 6.093 0 00-3.202.902.9.9 0 01-.232.101 6.115 6.115 0 00.488 10.165.9.9 0 11-.928 1.543 7.92 7.92 0 012.774-14.598 9.177 9.177 0 018.688-6.232 9.178 9.178 0 019.033 7.563 6.925 6.925 0 013.21 5.847.897.897 0 01-.252.625 6.932 6.932 0 11-13.66-2.183.9.9 0 011.756.403 5.131 5.131 0 105-3.976.9.9 0 110-1.8c.65 0 1.278.09 1.874.257zm8.902-5.146a4.29 4.29 0 11-4.291 4.29 4.29 4.29 0 014.291-4.29zm0 1.8a2.49 2.49 0 10-.001 4.981 2.49 2.49 0 00.001-4.98zM53.353 95.76a.9.9 0 011.8 0v19.98a.9.9 0 01-1.8 0V95.76zm5.761 0a.9.9 0 011.8 0v22.47a.9.9 0 01-1.8 0V95.76zm5.042 0a.9.9 0 011.8 0v23.67a.9.9 0 01-1.8 0V95.76zm5.04 0a.9.9 0 011.801 0v22.47a.9.9 0 01-1.8 0V95.76zm5.762 0a.9.9 0 011.8 0v19.98a.9.9 0 01-1.8 0V95.76zm57.674-7.58a.896.896 0 01.108.427V103.2c0 1.201.979 2.18 2.18 2.18h27.63c1.202 0 2.18-.979 2.18-2.18V90.188a.896.896 0 01-.107-.428v-7.677c0-1.202-.979-2.18-2.18-2.18h-27.63c-1.203 0-2.18.978-2.18 2.18v6.097zm33.791 0a.896.896 0 01.108.427V103.2a3.983 3.983 0 01-3.98 3.98h-27.63a3.983 3.983 0 01-3.981-3.98V89.496a.896.896 0 01-.108-.428v-6.985a3.983 3.983 0 013.98-3.98h27.63a3.983 3.983 0 013.981 3.98v6.097zm-53.596-14.39a8.992 8.992 0 018.994-8.991h54.03a8.992 8.992 0 018.994 8.991v54.018a8.992 8.992 0 01-8.994 8.991h-54.03a8.992 8.992 0 01-8.994-8.991V73.79zm1.8 0v54.018a7.192 7.192 0 007.194 7.191h54.03a7.192 7.192 0 007.194-7.191V73.79a7.192 7.192 0 00-7.194-7.191h-54.03a7.192 7.192 0 00-7.193 7.191zm57.22 9.602v38.219a3.056 3.056 0 01-3.058 3.056h-40.107a3.056 3.056 0 01-3.057-3.056v-38.22c0-5.89 4.776-10.665 10.667-10.665h24.887c5.891 0 10.667 4.776 10.667 10.666zm-33.224 3.32a.9.9 0 011.8 0v1.204a.9.9 0 01-1.8 0v-1.203zm17.074 0a.9.9 0 011.8 0v1.204a.9.9 0 01-1.8 0v-1.203zm14.349-3.32a8.867 8.867 0 00-8.867-8.866h-24.887a8.866 8.866 0 00-8.867 8.866v38.219c0 .694.563 1.256 1.257 1.256h40.107c.695 0 1.257-.562 1.257-1.256v-38.22zm-14.134 13.435a.9.9 0 110 1.8h-14.57a.9.9 0 110-1.8h14.57zm-15.798-1.552a.9.9 0 110 1.8h-.865a.9.9 0 110-1.8h.865zm17.867 0a.9.9 0 110 1.8h-.865a.9.9 0 110-1.8h.865zm-29.661 31.616h41.401a.703.703 0 00.703-.703v-.513a.703.703 0 00-.703-.703H128.32a.703.703 0 00-.703.703v.513c0 .389.314.703.703.703zm0 1.8a2.503 2.503 0 01-2.504-2.503v-.513a2.503 2.503 0 012.504-2.503h41.401a2.503 2.503 0 012.504 2.503v.513a2.503 2.503 0 01-2.504 2.503H128.32zm3.52-12.995a.9.9 0 110-1.8h4.852a.9.9 0 110 1.8h-4.852zm0-3.88a.9.9 0 110-1.8h4.852a.9.9 0 110 1.8h-4.852zm0 6.983a.9.9 0 110-1.8h4.852a.9.9 0 110 1.8h-4.852zm21.092-3.103a.9.9 0 110-1.8h12.7a.9.9 0 110 1.8h-12.7zm78.622 6.615h14.639l.73-28.12a.878.878 0 011.757.045l-.037 1.4 1.953.776 4.298-10.435a.881.881 0 01.088-.163l-8.241-4.162-3.046-1.865a3.396 3.396 0 00-1.775-.5h-3.56a.878.878 0 110-1.756h3.56c.951 0 1.883.262 2.693.758l2.982 1.83 10.075 5.085a2.815 2.815 0 011.348 3.557l-3.396 8.507a2.823 2.823 0 01-3.666 1.575l-3.361-1.336-.702 26.99c-.05 1.958-1.642 3.522-3.592 3.522h-27.344a3.507 3.507 0 01-3.496-3.426l-.711-27.34-4.005 1.589a2.83 2.83 0 01-3.673-1.576l-3.397-8.501a2.818 2.818 0 011.351-3.563l10.015-5.048a.86.86 0 00.073-.042l3.538-2.164a2.827 2.827 0 011.48-.417h5.957a.878.878 0 110 1.756h-5.957a1.07 1.07 0 00-.562.158l-3.534 2.162a2.54 2.54 0 01-.208.116l-7.677 3.87c.132.093.24.224.306.384l4.207 10.214 2.037-.809-.03-1.146a.878.878 0 011.757-.045l.73 28.12h14.64v-7.683a.878.878 0 011.756 0v7.683zm-1.757 3.951v-2.195h-14.593l.012.48a1.75 1.75 0 001.741 1.715h12.84zm1.757 0h12.747c.994 0 1.81-.8 1.836-1.81l.01-.385h-14.593v2.195zm-26.787-39.97l-.95.478c-.494.25-.715.832-.51 1.343l3.396 8.501c.22.548.843.815 1.394.596l.934-.371-4.198-10.193a.875.875 0 01-.066-.354zm51.77.306a.892.892 0 01-.019.048l-4.29 10.415.377.15a1.067 1.067 0 001.385-.594l3.397-8.507a1.06 1.06 0 00-.508-1.339l-.343-.173zm-62.09-12.149c0-5.33 4.322-9.65 9.653-9.65h52.712c5.331 0 9.653 4.32 9.653 9.65v52.7c0 5.33-4.321 9.65-9.653 9.65H204.1c-5.331 0-9.653-4.32-9.653-9.65v-52.7zm1.757 0v52.7a7.895 7.895 0 007.896 7.894h52.712a7.895 7.895 0 007.896-7.894v-52.7a7.895 7.895 0 00-7.896-7.894H204.1a7.895 7.895 0 00-7.896 7.894zm36.186 9.86a.878.878 0 01-1.473-.467l-1.104-5.764a.878.878 0 01.545-.983l7.209-2.797c.57-.222 1.224.194 1.233.806v2.62a.878.878 0 01-.268.643l-6.142 5.941zm4.648-6.94l-.014-.977-5.348 2.075.66 3.45 4.702-4.548zm-7.363 1.098l-5.348-2.075-.013.977 4.701 4.547.66-3.45zm-3.215-3.131h-3.908v-.878c0-.485.393-.879.878-.879h14.491a.88.88 0 01.879.879v.878h-12.34l4.533 1.759a.878.878 0 01.545.983l-1.103 5.764a.878.878 0 01-1.474.466l-6.142-5.941a.878.878 0 01-.267-.643v-2.62c.008-.612.662-1.028 1.233-.806l2.675 1.038zm-9.178 17.434v-2.59c0-1.182 1-2.113 2.204-2.113h3.252c1.218 0 2.229.942 2.229 2.136v2.567c0 2.024-1.734 3.639-3.842 3.639-2.109 0-3.843-1.615-3.843-3.639zm1.757 0c0 1.025.92 1.883 2.086 1.883 1.165 0 2.085-.858 2.085-1.883v-2.567c0-.195-.198-.38-.472-.38h-3.252c-.26 0-.447.174-.447.357v2.59zm12.376 22.99a.878.878 0 01-1.479-.947l3.497-5.453c.256-.4.361-.871.3-1.336l-3.928-29.5a.878.878 0 011.741-.231l3.927 29.499a3.742 3.742 0 01-.562 2.516l-3.496 5.453zm0-.948a.878.878 0 11-1.478.95l-3.427-5.323a4.146 4.146 0 01-.628-2.798l3.923-29.349a.878.878 0 011.741.233l-3.923 29.348a2.39 2.39 0 00.364 1.615l3.427 5.324zm46.453-41.022v54.018A7.192 7.192 0 00285.06 135h54.03a7.192 7.192 0 007.193-7.191V73.79a7.192 7.192 0 00-7.193-7.191h-54.03a7.192 7.192 0 00-7.193 7.191zm-1.8 0a8.992 8.992 0 018.993-8.991h54.03a8.992 8.992 0 018.994 8.991v54.018a8.992 8.992 0 01-8.994 8.991h-54.03a8.992 8.992 0 01-8.994-8.991V73.79zm17.44 43.136c.002.025.003.05.003.076 0 .136.002.265.006.39.182 5.154 3.925 9.22 8.417 9.22h26.89c.813 0 1.503-.527 1.747-1.259H302.07c-4.163 0-7.473-3.907-7.473-8.658 0-.019 0-.037.002-.055a.899.899 0 01-.033-.293c.245-4.553 3.772-8.155 8.081-8.155h28.02V80.136a2.394 2.394 0 00-2.395-2.394h-5.113c.149.492.228 1.012.228 1.55v17.952c0 1.258-1.195 1.814-2.173 1.027l-2.899-2.336-2.9 2.336c-.979.788-2.172.223-2.172-1.039v-19.49H300.37a6.86 6.86 0 00-6.86 6.858v32.252l-.003.075zm-1.795.001a.911.911 0 01-.003-.076V84.6a8.66 8.66 0 018.661-8.658h8.19a5.413 5.413 0 014.494-2.389h4.123c2.07 0 3.913.939 5.043 2.39l.032-.001h6.018a4.194 4.194 0 014.195 4.194v28.957c0 .293-.14.552-.355.717a.9.9 0 01-.123.214c.008-.01-.019.033-.07.144-.107.234-.22.56-.33.991-.329 1.302-.53 3.168-.53 5.693 0 2.528.201 4.439.533 5.815.186.77.355 1.17.433 1.287a.912.912 0 01.041.069.9.9 0 01.4.749 3.642 3.642 0 01-3.642 3.641h-26.89c-5.51 0-10-4.878-10.215-10.957a12.56 12.56 0 01-.008-.453l.003-.075zm19.362-40.986h3.931a.9.9 0 01.036 1.799v18.518l3.272-2.636 3.272 2.636V79.292c0-2.156-1.956-3.939-4.408-3.939h-4.123c-.72 0-1.403.211-1.98.589zm18.98 34.051h-27.409c-3.322 0-6.088 2.825-6.283 6.452a.9.9 0 01.033.251c0 3.817 2.577 6.858 5.673 6.858h27.893c-.04-.144-.08-.3-.121-.465-.367-1.523-.584-3.574-.584-6.237 0-2.665.217-4.678.587-6.135a10 10 0 01.21-.724zM302.537 121.5a.9.9 0 110-1.8h21.712a.9.9 0 110 1.8h-21.712zm-2.252-3.6a.9.9 0 110-1.8h21.524a.9.9 0 110 1.8h-21.524zm24.146 0a.9.9 0 110-1.8h2.097a.9.9 0 110 1.8h-2.097zm-21.045-3.6a.9.9 0 110-1.8h21.887a.9.9 0 110 1.8h-21.887zm-5.534-13.072a.9.9 0 011.8 0v3.042a.9.9 0 01-1.8 0v-3.042zm0-20.837a.9.9 0 011.8 0v16.096a.9.9 0 01-1.8 0V80.39zM487.487 95.31a.756.756 0 010-.243.9.9 0 01.9-.9h4.303a15.459 15.459 0 0110.145 3.843.9.9 0 01.082 1.269c-.07.073-.148.137-.235.189a13.92 13.92 0 011.009 18.534 13.929 13.929 0 01-18.31 3.066 5.348 5.348 0 00-2.863-.864h-14.404a6.303 6.303 0 00-3.24.954 13.902 13.902 0 01-14.192.091 13.895 13.895 0 01-6.874-12.412 13.696 13.696 0 014.015-9.297 1.017 1.017 0 01-.414-.261.9.9 0 01.081-1.269 15.414 15.414 0 0110.172-3.843h4.33a.9.9 0 01.9.9.98.98 0 010 .234h11.28V92.07a2.358 2.358 0 00-2.358-2.367h-17.041a4.168 4.168 0 110-8.334h16.32a3.087 3.087 0 003.08-3.069V66.6h1.8v11.7a4.886 4.886 0 01-4.88 4.896h-16.32a2.367 2.367 0 100 4.734h17.04a4.16 4.16 0 014.16 4.167v3.231l11.514-.018zm-48.18-21.51c0-4.97 4.03-9 9.002-9h54.013c4.972 0 9.003 4.03 9.003 9v54c0 4.97-4.03 9-9.003 9H448.31a9.001 9.001 0 01-9.002-9v-54zm1.8 0v54a7.2 7.2 0 007.202 7.2h54.013a7.2 7.2 0 007.202-7.2v-54a7.2 7.2 0 00-7.202-7.2H448.31a7.2 7.2 0 00-7.202 7.2zm4.502 35.1a12.104 12.104 0 005.993 10.82 12.11 12.11 0 0012.371-.092 8.103 8.103 0 014.141-1.224h14.404a7.203 7.203 0 013.807 1.116 12.038 12.038 0 007.382 1.8c6.507-.502 11.451-6.059 11.192-12.578-.26-6.519-5.63-11.666-12.155-11.65h-34.757c-6.633-.036-12.111 5.182-12.378 11.808zm21.927-3.29a10.267 10.267 0 01-2.223 11.2 10.273 10.273 0 01-17.535-7.28 10.24 10.24 0 0110.254-10.26 10.294 10.294 0 019.504 6.34zm-17.35.68a8.467 8.467 0 001.822 9.24 8.473 8.473 0 0014.468-5.991 8.45 8.45 0 00-8.444-8.469 8.493 8.493 0 00-7.847 5.22zm53.532-1.533a11.698 11.698 0 01-2.496 12.772 11.705 11.705 0 01-20-8.251 11.645 11.645 0 0111.64-11.709 11.725 11.725 0 0110.856 7.188zm-7.78-1.78a3.23 3.23 0 01-4.23 4.216 3.231 3.231 0 01-1.989-2.991 3.222 3.222 0 013.232-3.231 3.254 3.254 0 012.987 2.006zm-2.987-.197a1.431 1.431 0 101.422 1.431 1.43 1.43 0 00-1.422-1.44v.009zm2.987 9.827a3.23 3.23 0 01-4.23 4.216 3.231 3.231 0 01-1.989-2.991 3.222 3.222 0 013.232-3.231 3.254 3.254 0 012.987 2.006zm-2.987-.197a1.431 1.431 0 101.422 1.431 1.43 1.43 0 00-1.422-1.44v.009zm-5.671-6.3a3.231 3.231 0 11-3.232 3.231 3.222 3.222 0 013.232-3.276v.045zm0 1.8a1.431 1.431 0 101.422 1.431 1.43 1.43 0 00-1.422-1.476v.045zm11.333-1.8a3.232 3.232 0 11-3.222 3.231 3.23 3.23 0 013.222-3.276v.045zm0 1.8a1.431 1.431 0 101.432 1.431 1.43 1.43 0 00-1.432-1.476v.045zm-14.945-2.428a9.898 9.898 0 002.106 10.81 9.904 9.904 0 0016.926-6.978 9.845 9.845 0 00-9.839-9.945c-4.01.02-7.64 2.415-9.193 6.113zm-21.315.565a3.303 3.303 0 110 6.606h-1.207v1.215a3.303 3.303 0 11-6.598 0v-1.215h-1.207a3.303 3.303 0 110-6.606h1.207v-1.206a3.303 3.303 0 116.598 0v1.206h1.207zm-1.306 1.8a1.7 1.7 0 01-1.701-1.701v-1.305a1.503 1.503 0 10-2.998 0v1.305a1.7 1.7 0 01-1.737 1.701h-1.27a1.503 1.503 0 100 3.006h1.27a1.702 1.702 0 011.701 1.701v1.314a1.503 1.503 0 102.998 0v-1.314a1.7 1.7 0 011.701-1.701h1.342a1.503 1.503 0 100-3.006h-1.306zm17.447 3.501a.9.9 0 011.08 1.44l-3.15 2.34a.9.9 0 01-1.081-1.44l3.15-2.34zm-5.663 0a.9.9 0 011.251.18.9.9 0 01-.18 1.26l-3.15 2.34a.9.9 0 11-1.072-1.44l3.151-2.34zm-13.274-2.713a.9.9 0 01-1.273-.005.675.675 0 00-.955 0 .693.693 0 000 .963.677.677 0 00.955 0 .9.9 0 011.278 1.269 2.476 2.476 0 110-3.501.9.9 0 01-.005 1.273zm11.258-8.132a.9.9 0 110-1.8h8.597a.9.9 0 110 1.8h-8.597zm7.372 2.268a.9.9 0 110-1.8h2.503a.9.9 0 110 1.8h-2.503zm-2.835 0a.9.9 0 110-1.8h.495a.9.9 0 110 1.8h-.495zm-7.373 0a.9.9 0 110-1.8h5.401a.9.9 0 110 1.8h-5.401zm72.176 21.789a3.703 3.703 0 01-1.243-1.845l-.729-2.46a3.728 3.728 0 01-.152-1.053V90.966c0-.528.113-1.05.33-1.53l1.163-2.567a3.71 3.71 0 013.38-2.179h5.209a.9.9 0 110 1.8h-5.21c-.75 0-1.43.438-1.739 1.122l-1.163 2.567c-.112.247-.17.515-.17.787v28.236c0 .184.027.368.079.543l.729 2.458a1.91 1.91 0 001.83 1.367h25.494a1.91 1.91 0 001.831-1.367l.728-2.458c.053-.176.08-.359.08-.543V90.966c0-.272-.059-.54-.17-.787l-1.164-2.568a1.909 1.909 0 00-1.74-1.121h-5.911a.9.9 0 110-1.8h5.912a3.71 3.71 0 013.38 2.179l1.162 2.567a3.7 3.7 0 01.33 1.53v28.236c0 .358-.051.713-.152 1.055l-.729 2.458a3.703 3.703 0 01-1.243 1.845h7.364a.9.9 0 110 1.8h-41.65a.9.9 0 110-1.8h4.164zm-19.228-50.769a8.992 8.992 0 018.994-8.991h54.03a8.992 8.992 0 018.993 8.991v54.018a8.992 8.992 0 01-8.993 8.991h-54.03a8.992 8.992 0 01-8.994-8.991V73.79zm1.8 0v54.018a7.192 7.192 0 007.194 7.191h54.03a7.192 7.192 0 007.193-7.191V73.79a7.192 7.192 0 00-7.193-7.191h-54.03a7.192 7.192 0 00-7.194 7.191zm40.99 17.289a.9.9 0 110-1.8h3.75a.9.9 0 110 1.8h-3.75zm-21.185 0a.9.9 0 110-1.8h3.88a.9.9 0 110 1.8h-3.88zm31.456 22.77h1.325c.632 0 1.182-.433 1.33-1.048l1.23-5.111c.025-.104.037-.211.037-.32v-9.415a1.36 1.36 0 00-.273-.82l-.756-1.009a1.368 1.368 0 00-1.095-.547h-1.798c-.756 0-1.369.612-1.369 1.368v15.534c0 .756.613 1.368 1.369 1.368zm0 1.8a3.168 3.168 0 01-3.17-3.168V96.948a3.168 3.168 0 013.17-3.168h1.798c.997 0 1.936.47 2.535 1.267l.756 1.008c.412.548.634 1.215.634 1.901v9.415c0 .25-.03.499-.088.74l-1.23 5.112a3.17 3.17 0 01-3.08 2.427h-1.325zm-17.114-36.734a7.38 7.38 0 00-6.96-4.936 7.376 7.376 0 00-6.813 4.557 7.877 7.877 0 013.835 1.441.9.9 0 11-1.049 1.463 6.087 6.087 0 00-3.562-1.142 6.093 6.093 0 00-3.201.902.9.9 0 01-.232.101 6.115 6.115 0 00.488 10.165.9.9 0 11-.928 1.543 7.92 7.92 0 012.774-14.598 9.177 9.177 0 018.688-6.232 9.178 9.178 0 019.032 7.563 6.925 6.925 0 013.21 5.847.897.897 0 01-.252.625 6.932 6.932 0 11-13.659-2.183.9.9 0 011.755.403 5.131 5.131 0 105-3.976.9.9 0 110-1.8c.65 0 1.278.09 1.874.257zm8.903-5.146a4.29 4.29 0 11-4.292 4.29 4.29 4.29 0 014.292-4.29zm0 1.8a2.49 2.49 0 10-.002 4.981 2.49 2.49 0 00.002-4.98zm-22.705 20.19a.9.9 0 011.8 0v19.98a.9.9 0 01-1.8 0V95.76zm5.762 0a.9.9 0 011.8 0v22.47a.9.9 0 01-1.8 0V95.76zm5.04 0a.9.9 0 011.801 0v23.67a.9.9 0 01-1.8 0V95.76zm5.042 0a.9.9 0 011.8 0v22.47a.9.9 0 01-1.8 0V95.76zm5.762 0a.9.9 0 011.8 0v19.98a.9.9 0 01-1.8 0V95.76zM366.689 66.6a7.2 7.2 0 00-7.201 7.2v54a7.2 7.2 0 007.201 7.2h54.013a7.2 7.2 0 007.202-7.2v-54a7.2 7.2 0 00-7.202-7.2H366.69zm0-1.8h54.013c4.972 0 9.003 4.03 9.003 9v54c0 4.97-4.03 9-9.003 9H366.69c-4.971 0-9.002-4.03-9.002-9v-54c0-4.97 4.03-9 9.002-9zm54.013 55.804V96.296c0-.996-.8-1.796-1.791-1.796h-50.43c-.982 0-1.792.809-1.792 1.796v24.308c0 .996.8 1.796 1.792 1.796h50.43c.981 0 1.791-.809 1.791-1.796zm1.8 0a3.602 3.602 0 01-3.591 3.596h-50.43a3.59 3.59 0 01-3.592-3.596V96.296a3.602 3.602 0 013.592-3.596h50.43a3.59 3.59 0 013.592 3.596v24.308zm-9.45-23.404a4.95 4.95 0 11-4.952 4.95 4.95 4.95 0 014.952-4.95zm0 1.8a3.15 3.15 0 10-.001 6.3 3.15 3.15 0 000-6.3zm0 10.8a4.95 4.95 0 11-4.952 4.95 4.95 4.95 0 014.952-4.95zm0 1.8a3.15 3.15 0 10-.001 6.3 3.15 3.15 0 000-6.3zm0 1.8a1.35 1.35 0 110 2.7 1.35 1.35 0 010-2.7zm0-12.6a1.35 1.35 0 110 2.7 1.35 1.35 0 010-2.7zM402.698 99h-30.607c.002 0 .002.9 0 2.7h30.607c-.002 0-.002-.9 0-2.7zm1.8 2.7c0 .993-.811 1.8-1.8 1.8H372.09c-.995 0-1.8-.803-1.8-1.8V99c0-.993.81-1.8 1.8-1.8h30.607c.995 0 1.8.803 1.8 1.8v2.7zM377.493 99v.9a.9.9 0 01-1.8 0V99h1.8zm25.206 8.106c0-.003-10.202-.005-30.607-.006.003 0 .003 3.898 0 11.694 0 .003 10.202.005 30.607.006-.003 0-.003-3.898 0-11.694zm1.8 11.688c0 .995-.81 1.806-1.8 1.806H372.09c-.996 0-1.8-.81-1.8-1.806v-11.688c0-.995.81-1.806 1.8-1.806h30.607c.996 0 1.8.81 1.8 1.806v11.688zm8.115-28.645A.906.906 0 01412.6 90V79.2a.9.9 0 011.8 0V90c0 .05-.004.1-.012.15a2.7 2.7 0 011.812 2.55s-1.8-.004-1.8 0a.9.9 0 00-1.8-.002s-1.8.003-1.8-.002a2.7 2.7 0 011.812-2.547zM412.6 74.7a.9.9 0 011.8 0v1.8a.9.9 0 01-1.8 0v-1.8zm-40.51 52.2a.9.9 0 110-1.8h4.5a.9.9 0 110 1.8h-4.5zm38.71 0a.9.9 0 110-1.8h4.5a.9.9 0 110 1.8h-4.5z" mask="url(#b)" opacity=".1"/></g></svg>